<?xml version="1.0" standalone="no"?>
<!DOCTYPE svg PUBLIC "-//W3C//DTD SVG 20010904//EN"
 "http://www.w3.org/TR/2001/REC-SVG-20010904/DTD/svg10.dtd">
<svg version="1.0" xmlns="http://www.w3.org/2000/svg"
 width="590.000000pt" height="590.000000pt" viewBox="0 0 590.000000 590.000000"
 preserveAspectRatio="xMidYMid meet">
<metadata>
Created by potrace 1.14, written by Peter Selinger 2001-2017
</metadata>
<g transform="translate(0.000000,590.000000) scale(0.100000,-0.100000)"
fill="#000000" stroke="none">
<path d="M1887 4638 c-92 -19 -182 -92 -219 -178 -54 -123 0 -288 117 -360
125 -78 259 -54 374 65 36 38 74 68 92 73 51 13 1990 8 2014 -5 28 -16 680
-673 693 -699 19 -36 -5 -108 -39 -119 -56 -18 -121 -163 -121 -267 1 -179
191 -307 374 -252 63 19 151 100 184 171 21 44 25 66 22 112 -4 53 -12 68
-141 263 -154 233 -250 349 -458 554 -79 78 -200 197 -269 264 -90 88 -140
130 -179 148 l-54 25 -1002 -1 -1002 -1 -35 22 c-19 12 -55 47 -79 77 -68 84
-178 128 -272 108z m116 -203 c36 -23 52 -75 37 -119 -20 -63 -100 -91 -158
-56 -39 24 -51 51 -46 104 8 83 93 120 167 71z m3136 -1169 c57 -30 69 -115
22 -165 -24 -26 -36 -31 -76 -31 -79 0 -135 44 -135 105 1 38 21 74 51 91 32
18 103 17 138 0z"/>
<path d="M1203 4319 c-73 -23 -144 -82 -167 -139 -10 -25 -16 -67 -15 -113 2
-148 -35 -211 -196 -339 -117 -93 -178 -176 -221 -303 -28 -83 -28 -93 -21
-360 2 -71 -19 -109 -93 -167 -125 -96 -127 -290 -5 -414 52 -52 91 -69 188
-79 61 -6 101 -27 151 -80 23 -24 61 -54 86 -67 l45 -23 725 0 c834 0 755 9
863 -104 71 -73 132 -100 222 -97 178 6 310 179 270 356 -29 130 -160 230
-302 230 -70 0 -120 -28 -182 -101 -43 -50 -93 -80 -156 -95 -16 -3 -331 -7
-700 -7 -589 0 -674 2 -707 16 -50 21 -57 60 -29 152 23 73 26 131 11 185 -17
61 -66 127 -124 165 -73 49 -81 71 -80 230 0 213 46 317 183 423 56 44 91 79
118 119 8 12 35 32 59 44 40 19 54 20 132 14 55 -4 103 -3 129 4 206 56 273
329 119 483 -76 76 -190 101 -303 67z m184 -206 c40 -49 26 -130 -26 -158
-106 -54 -205 47 -150 152 30 57 133 61 176 6z m-621 -1344 c47 -48 34 -148
-22 -169 -33 -13 -90 -13 -115 0 -24 13 -49 61 -49 95 0 34 27 80 54 94 34 17
105 6 132 -20z m2040 -358 c88 -54 51 -196 -49 -193 -62 2 -117 47 -112 92 1
8 3 24 3 36 3 40 56 82 107 83 11 1 34 -8 51 -18z"/>
<path d="M2530 4063 c-39 -6 -112 -34 -143 -57 -15 -11 -43 -43 -62 -71 -20
-28 -48 -59 -64 -68 -31 -18 -41 -19 -186 -12 -165 7 -276 -35 -381 -145 -240
-251 -250 -260 -280 -260 -16 0 -43 4 -60 9 -38 11 -124 -3 -174 -29 -67 -34
-128 -111 -147 -186 -32 -130 39 -274 166 -335 68 -33 179 -33 244 1 98 50
168 161 161 253 -3 29 -6 71 -8 94 -4 49 20 108 57 144 14 13 69 67 124 120
54 53 111 104 126 114 59 38 205 50 301 24 60 -16 88 -33 140 -84 68 -65 118
-88 200 -91 163 -6 291 108 303 270 14 174 -148 331 -317 309z m73 -194 c31
-14 65 -75 62 -113 -5 -75 -121 -115 -179 -61 -14 13 -26 30 -27 37 0 7 -2 21
-4 32 -14 72 78 137 148 105z m-1225 -605 c78 -54 53 -172 -41 -193 -83 -19
-154 83 -107 155 35 52 103 70 148 38z"/>
<path d="M3980 4059 c-244 -28 -342 -338 -160 -502 60 -54 110 -70 226 -72 79
-2 98 -6 136 -28 61 -36 135 -117 166 -185 l27 -57 1 -340 c1 -336 1 -341 -22
-390 -13 -28 -42 -66 -66 -86 -66 -55 -93 -117 -93 -214 1 -92 19 -137 82
-199 65 -64 106 -81 203 -81 77 0 90 3 140 31 100 56 160 165 155 281 -3 85
-21 114 -127 203 -62 52 -82 108 -85 235 -4 176 -4 351 2 475 3 97 1 124 -16
173 -32 94 -82 160 -169 226 -91 69 -118 127 -87 189 8 15 13 45 12 68 -9 170
-156 293 -325 273z m84 -189 c60 -23 80 -121 34 -167 -87 -86 -233 6 -181 114
25 54 86 76 147 53z m499 -1610 c77 -85 -23 -210 -131 -164 -56 23 -75 103
-38 160 35 53 122 55 169 4z"/>
<path d="M3173 4039 c-62 -24 -123 -82 -153 -147 -28 -59 -31 -146 -6 -224 10
-32 16 -68 12 -82 -3 -13 -47 -65 -96 -114 -67 -66 -110 -99 -165 -127 -83
-43 -91 -43 -351 -33 -157 6 -190 -2 -251 -66 -49 -50 -82 -65 -133 -60 -19 2
-53 5 -75 8 -115 11 -273 -83 -306 -182 -17 -51 -6 -168 21 -226 51 -107 162
-178 271 -172 61 3 109 21 171 64 91 62 121 67 363 66 121 -1 267 -3 325 -5
88 -3 116 1 172 19 104 36 200 108 252 190 60 95 85 102 358 101 122 0 231 -3
241 -6 30 -8 45 -58 36 -111 -18 -94 -130 -219 -252 -281 -47 -24 -80 -33
-137 -37 -172 -12 -288 -128 -291 -289 -2 -109 91 -254 190 -295 69 -28 242
23 313 93 62 60 79 135 64 280 -8 81 15 117 145 228 93 80 157 212 163 338 4
76 -7 158 -26 201 -25 57 -32 58 -403 61 l-340 2 -52 -26 c-28 -15 -66 -46
-85 -69 -92 -118 -166 -174 -267 -204 -54 -15 -61 -16 -381 -9 -277 6 -275 6
-275 80 0 49 25 83 79 109 45 21 83 24 148 11 84 -18 230 -11 311 15 142 45
245 116 341 236 65 83 99 102 187 108 104 7 177 46 230 122 103 150 49 349
-117 429 -61 29 -157 31 -231 4z m166 -173 c31 -17 51 -54 51 -97 0 -22 -10
-41 -34 -65 -47 -47 -101 -48 -145 -3 -17 17 -31 38 -32 47 0 9 -2 24 -4 34
-4 23 31 77 58 88 33 13 75 12 106 -4z m-1320 -885 c24 -22 31 -38 31 -66 0
-42 -26 -92 -52 -101 -103 -32 -166 14 -159 118 1 9 13 30 27 47 22 27 32 31
74 31 39 0 54 -5 79 -29z m1519 -576 c42 -35 49 -75 22 -130 -22 -46 -40 -57
-95 -57 -85 0 -131 94 -84 170 30 48 110 57 157 17z"/>
<path d="M4991 2777 c-151 -51 -233 -210 -186 -362 14 -43 34 -74 82 -126 35
-38 64 -75 64 -82 8 -63 4 -138 -8 -167 -18 -45 -255 -285 -308 -312 -49 -26
-127 -28 -171 -5 -18 9 -54 39 -82 67 -88 89 -193 118 -305 84 -50 -15 -73
-29 -118 -74 -67 -66 -89 -121 -85 -212 11 -282 379 -385 526 -147 45 74 77
89 181 87 114 -2 173 25 254 118 75 85 117 127 194 194 90 78 114 130 115 245
1 107 12 129 83 170 93 54 146 146 144 251 -4 197 -195 333 -380 271z m144
-182 c82 -40 69 -165 -20 -195 -48 -16 -100 2 -126 44 -23 37 -24 67 -4 106
28 55 90 73 150 45z m-917 -904 c73 -39 69 -148 -6 -184 -74 -35 -152 14 -152
96 1 84 81 129 158 88z"/>
<path d="M1974 2189 c-150 -18 -250 -124 -258 -273 -5 -88 18 -161 69 -211 35
-35 54 -45 140 -68 55 -16 125 -35 155 -43 30 -9 62 -17 70 -19 8 -2 51 -13
95 -24 100 -24 142 -30 285 -38 156 -8 340 -8 488 1 113 6 126 5 156 -13 18
-11 38 -32 44 -45 39 -85 143 -148 246 -149 204 -2 347 222 263 407 -51 110
-152 170 -287 170 -92 0 -138 -24 -198 -100 -66 -84 -67 -84 -480 -85 -197 -1
-374 2 -395 6 -57 11 -68 36 -73 161 -3 86 -8 116 -27 157 -56 119 -165 181
-293 166z m85 -193 c38 -20 61 -70 50 -109 -14 -49 -37 -75 -74 -86 -77 -21
-135 25 -135 107 0 82 83 127 159 88z m1478 -318 c27 -27 38 -84 23 -124 -30
-77 -171 -75 -201 4 -17 43 -2 108 29 133 37 29 113 22 149 -13z"/>
</g>
</svg>
