<svg xmlns="http://www.w3.org/2000/svg" viewBox="0 0 512 512"><path fill="white" d="M222 293.5v25.2l-89.6-38.9v-21.5l89.6-38.8v25.3L159.6 269l62.4 24.6zm55.4-74.5-25 102.6-2.1 8a10 10 0 0 1-2.8 4.6 8.5 8.5 0 0 1-5.6 1.7c-6 0-9.1-2.6-9.1-7.9 0-1.3.6-4.7 1.8-10.2l24.8-102.7a46 46 0 0 1 3.8-11.2c1.2-2 3.5-3 7-3 2.9 0 5.2.7 6.7 2a7.5 7.5 0 0 1 2.4 6c0 1.8-.6 5.2-1.9 10zm102.2 60.8-89.6 39v-25.1l62.6-24.6-62.6-24.3v-25l89.6 38.7v21.3z"/><path fill="white" d="M437.3 74.7H74.7c-13.6 0-24.7 11-24.7 24.7v313.2c0 13.6 11 24.7 24.7 24.7h362.6c13.6 0 24.7-11 24.7-24.7V99.4c0-13.6-11-24.7-24.7-24.7zm-61.8 16.5a16.5 16.5 0 1 1 0 33 16.5 16.5 0 0 1 0-33zm-45.3 0a16.5 16.5 0 1 1 0 33 16.5 16.5 0 0 1 0-33zm107 321.4H74.8v-272h362.6v272zm-16.4-288.4a16.5 16.5 0 1 1 0-33 16.5 16.5 0 0 1 0 33z"/></svg>
