<svg xmlns="http://www.w3.org/2000/svg" viewBox="0 0 510.9 510.9"><path fill="white" d="M496.7 430.2 478 411.3l.9-.9-51.2-51.2-1 .9-16.1-16.2c-6.3-7.2-18-7.2-25.2 0l-43.7-42.3a188.6 188.6 0 1 0-37 38.4l43 41.7c-7.2 7.1-7.2 18 0 25.1L364 423h-.1l51.2 51.3.3-.4 20.3 20.1c8.1 9 19.8 13.5 31.5 13.5 0 0 .9 0 0 1a45.1 45.1 0 0 0 29.6-78.1zm-106.9-6.3 37.8-37.7 25.1 25.1L415 449l-25.2-25zM18 191.2a170.6 170.6 0 1 1 341.5-.2 170.6 170.6 0 0 1-341.5.2zm341.3 203c3.6-3.6 5.4-8 5.4-12.5s-1.8-9-5.4-12.6L318 328.7l12.6-12.6 42.2 40.4c7.2 7.2 18 7.2 25.1 0l16.2 16.2-38.2 38.2-16.6-16.7zm127.5 87.2c-5.3 5.4-12.5 9-19.7 9-8.1 0-14.4-2.7-19.8-8.1L427.1 462l38.2-38.2 18.9 18.8a29 29 0 0 1 2.6 38.7z"/><path fill="white" d="m292 200.2 15.2 23.4c1.8 1.8 4.5 3.6 7.2 3.6 1.8 0 3.6-1 4.5-1.8 4.5-2.7 5.4-8.1 2.7-12.6l-20.7-30.6h-32.3a144.3 144.3 0 0 0-6.6-32l19.2-12.9h15.2c5.4 0 9-3.6 9-9 0-5.3-3.6-9-9-9h-19.7L255 133.9a91.4 91.4 0 0 0-12.8-18.6A58.3 58.3 0 0 0 226.6 85l13.2-13.2c3.6-3.6 3.6-9 0-12.6a8.7 8.7 0 0 0-12.5 0L213.4 73a45.6 45.6 0 0 0-49.3.3l-14-14.1a8.7 8.7 0 0 0-12.7 0 8.7 8.7 0 0 0 0 12.6L151 85.3a56.4 56.4 0 0 0-16 30c-.7.7-1.4 1.4-2 2.3-3 3.6-6.8 8.7-10.5 15.7l-21-14H80.8c-5.3 0-9 3.7-9 9 0 5.4 3.7 9 9 9h15.3l19.2 12.8c-3 9-5.4 19.6-6.7 32.1H76.4l-21.6 30.6c-2.7 4.5-1.8 9.9 2.7 12.6 1.8.9 3.6 1.8 5.4 1.8 2.7 0 5.4-1.8 7.2-3.6l15.2-23.4h22.5c0 .6-.5 19.8 13.3 45h-18.7l-20.7 30.5c-2.7 4.5-1.8 9.8 2.7 12.5 1.8 1 3.6 1.8 5.4 1.8 2.7 0 5.4-1.8 7.2-3.6l15.3-23.3h20.6c4 5 8.4 10.1 13.5 15.3l5.4 5.3a52.4 52.4 0 0 0 73.7 0l5.3-5.3c5.3-5.2 9.8-10.3 13.7-15.3H265l15.3 23.3c1.7 1.8 4.4 3.6 7.1 3.6 1.8 0 3.6-.9 4.5-1.8 4.5-2.7 5.4-8 2.7-12.5L274 245h-17.6a96 96 0 0 0 13-44.9H292zM207.4 90.6c10.8 10.8 17 20.7 17 27.9 0 .4 0 2.3-.6 5l-.1.9a44.7 44.7 0 0 1-11 21.6l-.1.2-1.3 1.2h-.1a32 32 0 0 1-4 3l-.8.5-.9.5-1 .5-1 .4-1.1.5-1 .4a32.5 32.5 0 0 1-6.3 1.6l-1 .1-1.8.2-.9.1a44.7 44.7 0 0 1-5.7 0h-.9l-1.8-.3-1-.1-1.5-.3-1-.2a36.7 36.7 0 0 1-8.9-3.4l-.2-.2c-14-8.2-17.1-25.3-17.8-31.3 0-8.1 6.3-18 17-28.8 5.5-4.5 12.6-7.2 19-7.2s13.4 2.7 18.8 7.2zm10.8 175.2-5.4 5.4a34.2 34.2 0 0 1-48.5 0l-5.4-5.4c-33.2-33.2-33.2-63.8-33.2-65.6a140 140 0 0 1 7.7-48.3l.3-.2a9.3 9.3 0 0 0 1.5-4.3c1.3-3.1 2.6-5.9 4-8.3a51 51 0 0 0 38.8 33.3h.2a58.3 58.3 0 0 0 20.7 0h.1a51 51 0 0 0 39-33.3 124.5 124.5 0 0 1 13.4 61.1c0 1 1 31.5-33.2 65.6z"/></svg>
