<?xml version="1.0" standalone="no"?>
<!DOCTYPE svg PUBLIC "-//W3C//DTD SVG 20010904//EN"
 "http://www.w3.org/TR/2001/REC-SVG-20010904/DTD/svg10.dtd">
<svg version="1.0" xmlns="http://www.w3.org/2000/svg"
 width="530.000000pt" height="530.000000pt" viewBox="0 0 530.000000 530.000000"
 preserveAspectRatio="xMidYMid meet">
<metadata>
Created by potrace 1.14, written by Peter Selinger 2001-2017
</metadata>
<g transform="translate(0.000000,530.000000) scale(0.100000,-0.100000)"
fill="#000000" stroke="none">
<path d="M1925 4695 c-14 -13 -25 -31 -25 -40 0 -26 48 -68 71 -62 16 4 31
-12 81 -86 l62 -91 43 -361 c23 -198 43 -368 43 -377 0 -12 -13 -21 -40 -28
-22 -6 -61 -20 -87 -31 l-47 -20 -125 125 c-118 118 -130 127 -196 149 -64 22
-70 26 -76 57 -19 92 -127 71 -120 -22 2 -28 53 -49 88 -36 24 9 42 7 99 -12
63 -20 78 -31 177 -129 137 -134 138 -136 90 -156 -22 -10 -49 -13 -66 -9 -25
5 -36 0 -71 -34 -35 -34 -49 -40 -98 -45 -78 -7 -145 -39 -195 -94 -51 -55
-32 -65 -220 113 l-139 131 -98 18 c-53 10 -99 15 -101 13 -3 -3 34 -13 82
-23 49 -10 95 -21 104 -24 10 -3 82 -68 162 -143 l145 -138 -34 -34 c-19 -19
-34 -44 -34 -55 0 -17 -5 -20 -22 -16 -32 7 -40 -1 -84 -75 -20 -36 -67 -108
-104 -160 -95 -134 -97 -140 -72 -160 l21 -17 -30 -29 c-75 -71 -90 -181 -34
-238 15 -14 16 -22 6 -42 -40 -89 56 -251 170 -286 44 -13 46 -15 22 -34 -17
-13 -16 -16 10 -38 l28 -23 -279 -242 -280 -242 -11 -60 c-10 -50 -17 -61 -41
-74 -30 -15 -47 -53 -37 -79 3 -8 17 -22 31 -31 22 -15 27 -15 55 0 17 8 31
20 31 24 0 5 2 16 6 24 3 8 -6 28 -20 44 l-25 30 17 61 17 62 280 240 c184
158 285 238 295 234 46 -18 123 -25 156 -14 31 11 38 10 57 -8 12 -11 34 -22
49 -26 32 -7 96 16 116 41 10 14 12 6 12 -50 0 -67 0 -67 40 -95 21 -15 39
-30 40 -33 0 -3 -190 -133 -422 -289 -233 -156 -427 -286 -431 -290 -10 -9
-60 -201 -54 -207 2 -2 17 41 32 95 l28 99 415 279 c228 153 425 285 438 292
19 10 34 9 81 -3 32 -8 100 -15 155 -15 98 0 98 0 98 -25 0 -23 3 -25 48 -24
26 0 84 4 129 7 l82 7 52 -183 c29 -101 52 -189 52 -195 0 -7 -32 -95 -72
-196 -39 -101 -70 -186 -67 -188 2 -2 38 83 81 190 l77 193 -51 180 c-28 99
-51 184 -51 190 0 6 31 16 70 23 80 13 173 45 190 66 9 10 9 19 0 36 -12 21
-11 22 21 14 19 -4 63 -10 99 -14 l64 -6 178 -420 178 -420 -26 -128 c-15 -70
-24 -130 -22 -133 5 -5 59 231 58 257 0 9 -77 198 -171 420 -94 222 -173 409
-176 415 -2 7 16 19 43 28 26 9 61 27 79 40 22 17 36 22 46 15 25 -16 73 -9
126 17 l52 27 168 -103 c92 -57 176 -110 185 -118 10 -8 32 -59 50 -113 l32
-98 -22 -24 c-27 -28 -28 -68 -4 -90 40 -37 102 -9 102 46 0 28 -23 57 -45 57
-9 0 -27 41 -50 113 l-37 113 -184 113 c-101 62 -184 115 -184 118 0 3 9 21
21 39 17 28 24 32 40 24 44 -24 102 20 115 86 7 38 11 40 38 19 23 -18 72 -20
82 -4 3 6 17 9 31 6 20 -4 28 3 48 42 25 50 60 96 52 71 -2 -8 -12 -39 -22
-69 -15 -48 -16 -55 -2 -68 40 -41 134 36 163 132 26 86 23 217 -5 330 -25 98
-90 256 -116 285 -19 21 -45 16 -46 -9 0 -9 -9 15 -20 52 -11 38 -28 85 -38
105 -34 65 -111 122 -166 122 -24 0 -25 1 -10 24 26 39 2 65 -60 66 -17 0 -20
6 -19 37 l1 38 452 328 c436 315 454 327 499 328 26 0 70 5 97 9 35 6 19 7
-54 3 l-104 -5 -432 -313 c-238 -172 -444 -320 -458 -330 -24 -15 -29 -15 -76
2 -40 14 -51 22 -51 39 0 16 -11 26 -37 38 -21 9 -70 33 -110 55 -39 21 -86
44 -103 50 -24 8 -31 16 -28 29 3 9 63 161 134 336 l129 319 140 69 c132 65
142 68 172 56 64 -24 115 32 79 87 -33 51 -116 22 -116 -40 0 -16 -29 -35
-142 -91 l-143 -71 -136 -334 c-75 -183 -142 -336 -150 -340 -8 -3 -25 -11
-38 -18 -20 -11 -26 -10 -45 7 -34 31 -62 42 -106 42 -37 0 -41 -2 -47 -31 -5
-25 -8 -28 -15 -15 -16 28 -71 49 -128 50 -59 0 -100 -17 -159 -64 l-33 -28
-36 24 c-19 14 -46 27 -59 30 -13 4 -25 16 -28 28 -2 11 -23 181 -45 376 l-41
355 -61 93 c-53 81 -60 96 -50 113 18 28 14 53 -11 77 -30 28 -52 28 -82 -3z
m55 -40 c0 -8 -7 -15 -15 -15 -8 0 -15 7 -15 15 0 8 7 15 15 15 8 0 15 -7 15
-15z m1580 -149 c0 -8 -4 -17 -9 -21 -12 -7 -24 12 -16 25 9 15 25 12 25 -4z
m-1979 -581 c-1 -15 -24 -12 -29 3 -3 9 2 13 12 10 10 -1 17 -7 17 -13z m1096
-342 c-3 -10 -5 -4 -5 12 0 17 2 24 5 18 2 -7 2 -21 0 -30z m-402 -222 c-14
-28 -27 -51 -30 -51 -2 0 7 29 20 65 14 36 26 89 27 118 2 47 2 46 5 -15 3
-56 0 -75 -22 -117z m760 145 l30 -13 -45 -14 c-38 -12 -45 -18 -45 -39 0 -28
-11 -40 -38 -40 -11 0 -31 -9 -45 -21 l-27 -21 -5 34 c-4 27 -13 37 -50 55
-42 21 -43 22 -15 21 17 -1 37 2 45 6 11 4 19 -2 27 -24 15 -41 47 -40 69 3
21 40 44 67 58 67 6 -1 25 -7 41 -14z m-292 -33 c-13 -2 -35 -2 -50 0 -16 2
-5 4 22 4 28 0 40 -2 28 -4z m-170 -42 c-21 -15 -56 -48 -76 -71 -35 -42 -77
-132 -77 -167 0 -29 -17 -1 -24 40 -6 33 -4 38 17 46 14 5 41 39 68 85 37 63
49 77 79 85 55 14 56 13 13 -18z m-522 -8 c-10 -20 -48 -56 -71 -68 -8 -4 5
13 30 39 48 50 56 55 41 29z m-317 -58 c-13 -20 -20 -23 -35 -14 -26 13 -24
17 14 28 17 5 33 10 35 10 1 1 -5 -10 -14 -24z m1553 -42 c-8 -16 -22 -52 -32
-81 -9 -29 -19 -51 -21 -49 -2 2 3 24 12 48 8 24 13 59 10 77 -4 29 -2 32 20
32 23 0 24 -1 11 -27z m-1360 -55 c-2 -13 -4 -5 -4 17 -1 22 1 32 4 23 2 -10
2 -28 0 -40z m-393 -18 c-5 -23 -2 -34 15 -47 22 -18 22 -18 -21 -18 -29 -1
-56 -9 -85 -28 l-42 -26 17 29 c9 16 27 32 39 35 12 3 34 23 50 45 15 22 29
40 30 40 1 0 0 -13 -3 -30z m1363 -62 c-8 -5 -14 1 -19 15 -12 43 -8 52 12 22
14 -22 16 -31 7 -37z m322 -52 c-9 -8 -10 -7 -5 7 3 10 7 24 7 30 1 7 3 4 6
-7 3 -10 -1 -23 -8 -30z m-1412 14 c32 -25 44 -25 77 1 24 19 26 19 26 2 0
-11 -14 -24 -38 -34 -34 -14 -39 -14 -67 3 -17 10 -34 19 -39 21 -9 3 0 27 11
27 2 0 16 -9 30 -20z m193 -82 c0 -82 0 -83 -25 -83 -29 0 -29 -1 -13 41 9 24
9 39 1 57 -10 20 -8 28 10 46 12 11 23 21 24 21 2 0 3 -37 3 -82z m825 73
c-41 -38 -175 -139 -175 -132 0 5 -3 22 -6 38 -5 27 -4 29 28 30 20 0 57 14
92 37 58 35 80 45 61 27z m-1165 -35 c0 -3 -4 -8 -10 -11 -5 -3 -10 -1 -10 4
0 6 5 11 10 11 6 0 10 -2 10 -4z m1416 -61 c-3 -8 -13 -15 -22 -15 -11 0 -14
5 -10 16 3 9 9 28 13 42 l6 27 10 -28 c5 -15 6 -34 3 -42z m-1800 -194 c-12
-11 -18 -12 -30 -2 -8 7 -25 9 -41 5 -23 -6 -21 -1 22 39 l48 46 8 -37 c5 -26
4 -40 -7 -51z m194 63 c0 -23 -3 -25 -22 -20 -13 4 -41 10 -63 13 l-40 6 30
13 c17 7 45 13 63 14 28 0 32 -3 32 -26z m1056 1 c10 -8 28 -15 39 -15 19 0
21 -6 20 -77 l0 -78 43 2 c40 2 42 0 42 -26 0 -40 -8 -43 -51 -21 -52 27 -63
25 -108 -15 -24 -22 -49 -35 -65 -35 -27 0 -26 1 16 33 78 60 106 125 75 172
-52 76 -55 94 -11 60z m362 -80 c-21 -43 -24 -45 -53 -39 -38 8 -44 13 -25 24
8 5 31 20 50 34 49 35 53 32 28 -19z m-1188 -5 c0 -5 -7 -7 -15 -4 -8 4 -12
10 -9 15 6 11 24 2 24 -11z m-80 -39 c0 -11 3 -28 6 -38 4 -12 -3 -9 -21 11
-21 22 -24 31 -13 37 20 13 28 11 28 -10z m-376 -15 c-3 -9 -13 -16 -22 -16
-13 0 -12 3 3 20 20 23 29 21 19 -4z m2283 -26 c17 0 50 -7 73 -15 23 -8 53
-12 66 -9 20 5 24 2 24 -17 0 -13 3 -35 7 -49 6 -25 5 -25 -28 6 -58 54 -94
67 -171 62 l-68 -5 17 28 c15 25 19 27 33 14 9 -8 30 -15 47 -15z m-2191 -25
c-3 -9 -11 -13 -16 -10 -8 5 -7 11 1 21 14 18 24 11 15 -11z m532 -120 l-3
-35 -39 27 c-37 27 -37 28 -15 33 15 3 30 19 39 40 l15 34 3 -32 c2 -17 2 -47
0 -67z m232 50 c0 -8 -4 -17 -10 -20 -6 -4 -10 5 -10 20 0 15 4 24 10 20 6 -3
10 -12 10 -20z m1127 -12 c-3 -3 -11 -2 -17 2 -9 6 -9 10 1 16 14 8 27 -7 16
-18z m-77 7 c0 -5 -7 -10 -16 -10 -8 0 -12 5 -9 10 3 6 10 10 16 10 5 0 9 -4
9 -10z m-1979 -83 c-18 -18 -21 -3 -9 39 l12 39 4 -34 c2 -18 -1 -38 -7 -44z
m2165 41 c-1 -32 0 -33 39 -31 34 2 37 1 20 -9 -11 -6 -30 -23 -42 -37 -16
-19 -22 -22 -23 -10 0 9 -14 35 -30 58 -21 28 -26 43 -18 45 7 3 20 7 28 9 26
9 28 8 26 -25z m-1884 -30 c20 -10 42 -18 48 -18 17 0 12 -10 -20 -37 -19 -16
-30 -34 -30 -50 0 -25 -1 -26 -20 -8 -17 16 -18 20 -5 38 23 33 18 52 -22 78
-20 13 -39 31 -41 39 -4 11 2 10 24 -5 16 -10 46 -27 66 -37z m765 24 c8 -5
-1 -15 -24 -31 -29 -19 -35 -20 -29 -6 3 9 6 23 6 31 0 15 27 19 47 6z m1333
-46 c0 -24 -15 -26 -28 -5 -11 16 -9 19 8 19 11 0 20 -6 20 -14z m-1580 -61
c22 -7 18 -10 -35 -35 -52 -23 -62 -25 -75 -13 -8 8 -37 25 -65 37 l-50 23
101 -2 c55 -1 111 -6 124 -10z m970 -82 c0 -10 -20 -30 -46 -45 -30 -19 -50
-40 -60 -65 l-16 -37 -14 24 c-7 14 -13 28 -14 32 0 3 24 19 53 36 28 16 61
39 71 51 23 26 26 26 26 4z m-526 -79 c-38 -12 -78 -25 -89 -30 -12 -5 0 14
30 48 l49 56 39 -26 39 -26 -68 -22z m-593 39 c-26 -46 -31 -49 -31 -21 0 17
6 28 18 31 9 3 18 5 20 6 1 0 -2 -7 -7 -16z m753 2 c4 -10 -1 -15 -14 -15 -20
0 -26 11 -13 23 10 11 20 8 27 -8z m-1084 -127 c0 -5 -12 -8 -27 -8 -26 0 -26
0 -8 20 14 16 20 17 27 8 4 -7 8 -16 8 -20z m262 -49 c-8 -32 -9 -33 -16 -11
-5 14 -3 29 5 38 17 21 21 11 11 -27z m-167 2 c17 -7 15 -9 -13 -13 -20 -3
-37 0 -43 9 -9 10 -6 13 12 12 13 0 33 -4 44 -8z m1350 -41 c3 -5 1 -10 -4
-10 -6 0 -11 5 -11 10 0 6 2 10 4 10 3 0 8 -4 11 -10z m-415 -35 c10 -13 9
-15 -8 -15 -22 0 -36 13 -25 24 10 10 20 7 33 -9z m1196 -526 c10 -17 -13 -36
-27 -22 -12 12 -4 33 11 33 5 0 12 -5 16 -11z m-2983 -150 c-17 -17 -37 -1
-22 17 8 10 15 12 23 4 7 -7 7 -13 -1 -21z"/>
<path d="M4531 4154 c-26 -32 -26 -46 -3 -72 27 -31 55 -35 85 -11 32 25 35
61 7 89 -28 28 -64 25 -89 -6z m60 -39 c-1 -15 -24 -12 -29 3 -3 9 2 13 12 10
10 -1 17 -7 17 -13z"/>
<path d="M695 3778 c-41 -23 -47 -66 -15 -98 27 -27 56 -25 85 5 30 29 31 46
8 73 -23 26 -53 34 -78 20z m40 -49 c10 -15 -1 -23 -20 -15 -9 3 -13 10 -10
16 8 13 22 13 30 -1z"/>
<path d="M888 3683 c7 -3 16 -2 19 1 4 3 -2 6 -13 5 -11 0 -14 -3 -6 -6z"/>
<path d="M938 3673 c7 -3 16 -2 19 1 4 3 -2 6 -13 5 -11 0 -14 -3 -6 -6z"/>
<path d="M2366 1075 c-9 -26 -7 -32 5 -12 6 10 9 21 6 23 -2 3 -7 -2 -11 -11z"/>
<path d="M855 1026 c-30 -31 -31 -45 -4 -80 25 -31 61 -34 89 -6 37 37 19 87
-37 104 -17 5 -29 1 -48 -18z m55 -41 c0 -8 -7 -15 -15 -15 -16 0 -20 12 -8
23 11 12 23 8 23 -8z"/>
<path d="M2230 850 c-11 -11 -20 -26 -20 -34 0 -25 41 -66 66 -66 31 0 64 33
64 63 0 52 -71 76 -110 37z m65 -30 c3 -6 -1 -13 -10 -16 -19 -8 -30 0 -20 15
8 14 22 14 30 1z"/>
<path d="M3182 840 c0 -14 2 -19 5 -12 2 6 2 18 0 25 -3 6 -5 1 -5 -13z"/>
<path d="M3110 690 c-11 -11 -20 -31 -20 -45 0 -28 35 -65 62 -65 23 0 68 43
68 65 0 23 -45 65 -70 65 -11 0 -29 -9 -40 -20z m60 -45 c0 -8 -6 -15 -14 -15
-17 0 -28 14 -19 24 12 12 33 6 33 -9z"/>
</g>
</svg>
