<?xml version="1.0" encoding="utf-8"?>
<!-- Generator: Adobe Illustrator 23.0.3, SVG Export Plug-In . SVG Version: 6.00 Build 0)  -->
<svg version="1.1" xmlns="http://www.w3.org/2000/svg" xmlns:xlink="http://www.w3.org/1999/xlink" x="0px" y="0px"
	 viewBox="0 0 5000 5000" style="enable-background:new 0 0 5000 5000;" xml:space="preserve">
<style type="text/css">
	.st0{fill:#E6E6E6;}
	.st1{fill:none;stroke:#E6E6E6;stroke-width:81.4639;stroke-linecap:round;stroke-linejoin:round;stroke-miterlimit:10;}
</style>
<g id="Vrstva_1">
	<path d="M2500.79,4262.96c-0.14,0.13-0.28,0.25-0.43,0.36c-0.51-0.42-1.03-0.83-1.54-1.25c-86.6-78.14-200.05-189.48-318.94-335.1
		c-48.53-59.44-244.7-304.33-357.95-550.03c-282.89-613.74-76.56-1291.36-29.88-1428c145.81-426.79,495.01-930.93,524.08-971.96
		c4.81-6.79,37.07-52.01,79.01-114.99c39.13-58.78,71.3-109.93,95.51-149.41c6.53-10.1,9.83-15.58,9.83-15.58l0.18,0
		c0,0,14.82,24.62,43.82,65.55c0.04,0.06,0.08,0.11,0.13,0.16c139.93,197.4,609.56,773.01,1342.01,797.47
		C3886.63,1560.19,4031.03,3024.91,2500.79,4262.96z"/>
</g>
<g id="Vrstva_2">
	<path class="st0" d="M2498.82,4262.07C969.96,3023.94,1114.39,1559.95,1114.39,1559.95c812.94-27.02,1302.23-733.03,1376.26-847.37
		c-24.21,39.48-56.38,90.64-95.51,149.41c-41.94,62.99-74.2,108.2-79.01,114.99c-29.07,41.03-378.28,545.17-524.08,971.96
		c-46.68,136.65-253.01,814.26,29.88,1428c113.25,245.7,309.42,490.59,357.95,550.03
		C2298.76,4072.59,2412.21,4183.93,2498.82,4262.07z"/>
</g>
<g id="Vrstva_3">
	<polyline class="st1" points="2358.47,1957 1890.15,2257.75 2356.44,2556.31 2642.53,1957 3110.85,2257.75 2642.53,2558.49 	"/>
</g>
</svg>
